<?xml version="1.0" encoding="utf-8"?><svg viewBox="0 0 57 29" xmlns="http://www.w3.org/2000/svg" xmlns:xlink="http://www.w3.org/1999/xlink"><style>:root>svg{display:none}:root>svg:target{display:block}</style><svg fill="none" viewBox="0 0 13 24" id="agree" xmlns="http://www.w3.org/2000/svg"><path fill-rule="evenodd" clip-rule="evenodd" d="m12.766 4.68-8.17 8.801L.257 8.67l1.486-1.34 2.874 3.188L11.3 3.32l1.466 1.36z" fill="#000"/></svg><svg fill="none" viewBox="0 0 20 20" id="arrow-up" xmlns="http://www.w3.org/2000/svg"><path d="M17.342 14.912a.97.97 0 0 1-1.378.014l-5.822-5.751a.2.2 0 0 0-.283.001l-5.706 5.74A1.009 1.009 0 0 1 2.714 13.5l6.57-6.752a1 1 0 0 1 1.433 0l6.625 6.81a.97.97 0 0 1 0 1.353z" fill="#9797AF"/></svg><svg fill="none" viewBox="0 0 28 24" id="burger-menu" xmlns="http://www.w3.org/2000/svg"><path d="M0 2a2 2 0 0 1 2-2h24a2 2 0 1 1 0 4H2a2 2 0 0 1-2-2zm0 10a2 2 0 0 1 2-2h24a2 2 0 1 1 0 4H2a2 2 0 0 1-2-2zm0 10a2 2 0 0 1 2-2h24a2 2 0 1 1 0 4H2a2 2 0 0 1-2-2z" fill="#fff"/></svg><svg fill="none" viewBox="0 0 28 29" id="cart" xmlns="http://www.w3.org/2000/svg"><g fill-rule="evenodd" clip-rule="evenodd" fill="#fff"><path d="M11.221 17.466a1 1 0 0 0 1.1.653l12.766-2.036a1 1 0 0 0 .824-.792l1.354-6.792a1 1 0 0 0-.964-1.196l-17.36-.28a1 1 0 0 0-.958 1.335l3.238 9.108zm.605 7.894a2.326 2.326 0 1 0 0-4.653 2.326 2.326 0 0 0 0 4.652zm11.631 0a2.326 2.326 0 1 0 0-4.653 2.326 2.326 0 0 0 0 4.652zM5 4c1.933 0 3.5-.224 3.5-.5S6.933 3 5 3s-3.5.224-3.5.5S3.067 4 5 4z"/><path d="M2.454 2.651C3.118 2.557 4.017 2.5 5 2.5c.983 0 1.882.057 2.546.151.327.047.619.106.839.18.107.037.227.086.33.158.085.06.285.224.285.511 0 .287-.2.451-.285.51a1.317 1.317 0 0 1-.33.158c-.22.075-.512.134-.84.18C6.883 4.444 5.984 4.5 5 4.5c-.983 0-1.882-.057-2.546-.151a4.934 4.934 0 0 1-.839-.18 1.317 1.317 0 0 1-.33-.158C1.2 3.95 1 3.787 1 3.5c0-.287.2-.451.285-.51.103-.073.223-.122.33-.158.22-.075.512-.134.84-.18z"/></g></svg><svg fill="none" viewBox="0 0 28 29" id="cart-mobile" xmlns="http://www.w3.org/2000/svg"><path fill-rule="evenodd" clip-rule="evenodd" d="M10.325 18.474c.165.495.665.795 1.179.707l12.656-2.153c.436-.074.78-.412.86-.847l1.482-7.922a.5.5 0 0 0-.483-.592l-18.662-.32a.528.528 0 0 0-.51.694l3.478 10.433zm13.425 6.859a2.25 2.25 0 1 0 0-4.5 2.25 2.25 0 0 0 0 4.5zm-13 0a2.25 2.25 0 1 0 0-4.5 2.25 2.25 0 0 0 0 4.5zM2.454 3.56c.664-.142 1.563-.227 2.546-.227.983 0 1.882.085 2.546.227.327.07.619.16.839.27a1.2 1.2 0 0 1 .33.237c.085.09.285.335.285.766s-.2.677-.285.766a1.2 1.2 0 0 1-.33.237c-.22.111-.512.2-.84.27-.663.142-1.562.227-2.545.227-.983 0-1.882-.085-2.546-.227a3.578 3.578 0 0 1-.839-.27 1.2 1.2 0 0 1-.33-.237A1.083 1.083 0 0 1 1 4.833c0-.43.2-.677.285-.766a1.2 1.2 0 0 1 .33-.236c.22-.112.512-.2.84-.27z" fill="#CB11AB"/></svg><svg fill="none" viewBox="0 0 28 29" id="cart_(1)" xmlns="http://www.w3.org/2000/svg"><path fill-rule="evenodd" clip-rule="evenodd" d="M10.325 18.474c.165.495.665.795 1.179.707l12.656-2.153c.436-.074.78-.412.86-.847l1.482-7.922a.5.5 0 0 0-.483-.592l-18.662-.32a.528.528 0 0 0-.51.694l3.478 10.433zm13.425 6.859a2.25 2.25 0 1 0 0-4.5 2.25 2.25 0 0 0 0 4.5zm-13 0a2.25 2.25 0 1 0 0-4.5 2.25 2.25 0 0 0 0 4.5zM2.454 3.56c.664-.142 1.563-.227 2.546-.227.983 0 1.882.085 2.546.227.327.07.619.16.839.27a1.2 1.2 0 0 1 .33.237c.085.09.285.335.285.766s-.2.677-.285.766a1.2 1.2 0 0 1-.33.237c-.22.111-.512.2-.84.27-.663.142-1.562.227-2.545.227-.983 0-1.882-.085-2.546-.227a3.578 3.578 0 0 1-.839-.27 1.2 1.2 0 0 1-.33-.237A1.083 1.083 0 0 1 1 4.833c0-.43.2-.677.285-.766a1.2 1.2 0 0 1 .33-.236c.22-.112.512-.2.84-.27z" fill="#CB11AB"/></svg><svg fill="none" viewBox="0 0 29 29" id="catalog" xmlns="http://www.w3.org/2000/svg"><g clip-path="url(#ga)"><path fill="#fff" d="M.5.333h28v28H.5z"/><path fill-rule="evenodd" clip-rule="evenodd" d="m20.296 17.833 2.889 2.889c.036.036.072.073.106.111H27a1.5 1.5 0 1 0 0-3h-6.704zm-.168-9a10.976 10.976 0 0 0-1.762-3H27a1.5 1.5 0 1 1 0 3h-6.872zm.745 3.987c0-.333-.014-.662-.043-.987H27a1.5 1.5 0 1 1 0 3h-6.31c.12-.653.183-1.326.183-2.013z" fill="#CCC"/><path fill-rule="evenodd" clip-rule="evenodd" d="M4.4 12.82a5.487 5.487 0 1 1 10.973 0 5.487 5.487 0 0 1-10.973 0zm-3.5 0a8.987 8.987 0 1 1 17.142 3.78c-.326.702-.255 1.553.293 2.1l3.435 3.436a1.58 1.58 0 0 1-2.234 2.235l-3.324-3.324c-.57-.57-1.466-.623-2.182-.25A8.987 8.987 0 0 1 .9 12.82z" fill="#CCC"/></g><defs><clipPath id="ga"><path fill="#fff" transform="translate(.5 .333)" d="M0 0h28v28H0z"/></clipPath></defs></svg><svg fill="none" viewBox="0 0 20 20" id="delete" xmlns="http://www.w3.org/2000/svg"><g fill-rule="evenodd" clip-rule="evenodd" fill="#000"><path d="M2.5 5a.5.5 0 0 1 .5-.5h14a.5.5 0 0 1 0 1H3a.5.5 0 0 1-.5-.5z"/><path d="M3.458 4.5h13.048l-.865 11.193A2.5 2.5 0 0 1 13.15 18H6.846a2.5 2.5 0 0 1-2.492-2.3L3.458 4.5zm1.084 1 .81 10.12A1.5 1.5 0 0 0 6.845 17h6.303a1.5 1.5 0 0 0 1.495-1.384L15.426 5.5H4.542z"/><path d="M13 5.5H7V3.469A1.47 1.47 0 0 1 8.469 2h3.062A1.47 1.47 0 0 1 13 3.469V5.5zM8.469 3A.469.469 0 0 0 8 3.469V4.5h4V3.469A.469.469 0 0 0 11.531 3H8.47z"/></g></svg><svg fill="none" viewBox="0 0 20 20" id="delete-hover" xmlns="http://www.w3.org/2000/svg"><g fill-rule="evenodd" clip-rule="evenodd" fill="#F55123"><path d="M2.5 5a.5.5 0 0 1 .5-.5h14a.5.5 0 0 1 0 1H3a.5.5 0 0 1-.5-.5z"/><path d="M3.458 4.5h13.048l-.865 11.193A2.5 2.5 0 0 1 13.15 18H6.846a2.5 2.5 0 0 1-2.492-2.3L3.458 4.5zm1.084 1 .81 10.12A1.5 1.5 0 0 0 6.845 17h6.303a1.5 1.5 0 0 0 1.495-1.384L15.426 5.5H4.542z"/><path d="M13 5.5H7V3.469A1.47 1.47 0 0 1 8.469 2h3.062A1.47 1.47 0 0 1 13 3.469V5.5zM8.469 3A.469.469 0 0 0 8 3.469V4.5h4V3.469A.469.469 0 0 0 11.531 3H8.47z"/></g></svg><svg fill="none" viewBox="0 0 57 2" id="dotted-line" xmlns="http://www.w3.org/2000/svg"><path d="M1 1h55" stroke="#000" stroke-opacity=".2" stroke-linecap="square" stroke-dasharray="4 2"/></svg><svg fill="none" viewBox="0 0 20 20" id="favorites" xmlns="http://www.w3.org/2000/svg"><path fill-rule="evenodd" clip-rule="evenodd" d="M3.034 4.059c-.768.693-1.267 1.774-1.039 3.37.228 1.599 1.27 3.256 2.81 4.919 1.454 1.57 3.305 3.096 5.195 4.526 1.89-1.43 3.741-2.956 5.196-4.526 1.54-1.663 2.58-3.32 2.809-4.919.228-1.596-.271-2.677-1.04-3.37C16.178 3.346 15.056 3 14 3c-1.868 0-2.908 1.085-3.482 1.684-.06.063-.115.12-.165.17a.5.5 0 0 1-.707 0 11.53 11.53 0 0 1-.164-.17C8.908 4.084 7.868 3 6 3c-1.055 0-2.177.346-2.966 1.059zm-.67-.743C3.374 2.404 4.752 2 6 2c2.071 0 3.345 1.113 4 1.779C10.655 3.113 11.929 2 14 2c1.248 0 2.626.404 3.636 1.316 1.031.932 1.63 2.351 1.359 4.255-.272 1.901-1.48 3.744-3.066 5.456-1.594 1.722-3.623 3.368-5.629 4.873a.5.5 0 0 1-.6 0c-2.006-1.505-4.036-3.151-5.63-4.873-1.585-1.712-2.793-3.555-3.065-5.456-.272-1.904.328-3.323 1.359-4.255z" fill="#000"/></svg><svg fill="none" viewBox="0 0 29 29" id="favorites-mobile" xmlns="http://www.w3.org/2000/svg"><path d="M14.98 23.75a.996.996 0 0 1-1.322 0C8.252 18.952 3.5 14.28 3.5 10.311c0-3.37 2.618-5.979 6-5.979 1.658 0 3.317.696 4.507 1.853a.582.582 0 0 0 .804 0c1.19-1.157 2.849-1.853 4.507-1.853 3.382 0 6 2.609 6 5.979 0 3.969-4.92 8.641-10.339 13.438z" fill="#CCC"/></svg><svg fill="none" viewBox="0 0 29 29" id="favorites_(1)" xmlns="http://www.w3.org/2000/svg"><path d="M14.98 23.75a.996.996 0 0 1-1.322 0C8.252 18.952 3.5 14.28 3.5 10.311c0-3.37 2.618-5.979 6-5.979 1.658 0 3.317.696 4.507 1.853a.582.582 0 0 0 .804 0c1.19-1.157 2.849-1.853 4.507-1.853 3.382 0 6 2.609 6 5.979 0 3.969-4.92 8.641-10.339 13.438z" fill="#CCC"/></svg><svg fill="none" viewBox="0 0 28 29" id="main" xmlns="http://www.w3.org/2000/svg"><path fill-rule="evenodd" clip-rule="evenodd" d="M3.392 13.764c-.957.94-.29 2.569 1.052 2.569H5v6a2 2 0 0 0 2 2h4.25a.5.5 0 0 0 .5-.5v-3.09a2 2 0 0 1 2-2h.5a2 2 0 0 1 2 2v3.09a.5.5 0 0 0 .5.5H21a2 2 0 0 0 2-2v-6h.379c1.336 0 2.005-1.616 1.06-2.56l-9.738-9.739a1 1 0 0 0-1.408-.006l-9.9 9.736z" fill="#CCC"/></svg><svg fill="none" viewBox="0 0 30 10" id="mir" xmlns="http://www.w3.org/2000/svg"><path d="m16.681 1.844-1.817 3.914h-.183V1h-2.596v8.002h2.152c.584 0 1.103-.335 1.352-.854l1.828-3.904h.183v4.758h2.596V1H18.01c-.562 0-1.092.336-1.33.844zm-9.709.206-1.07 3.708h-.184L4.637 2.05A1.46 1.46 0 0 0 3.23 1H.668v8.002h2.595V4.244h.184l1.492 4.758h1.73l1.493-4.758h.184v4.758h2.595V1H8.378a1.45 1.45 0 0 0-1.406 1.05zm14.352 2.517v4.435h2.597V6.406h2.79c1.212 0 2.24-.768 2.619-1.839h-8.006z" fill="#319B42"/><path d="M26.636 1h-5.777c.357 1.904 2.023 3.245 4.024 3.245h4.49c.032-.173.054-.367.054-.562C29.427 2.136 28.183 1 26.636 1z" fill="url(#oa)"/><defs><linearGradient id="oa" x1="20.859" y1="2.623" x2="29.427" y2="2.623" gradientUnits="userSpaceOnUse"><stop stop-color="#00A3E1"/><stop offset=".304" stop-color="#009ADD"/><stop offset=".799" stop-color="#0082D4"/><stop offset="1" stop-color="#0076CF"/></linearGradient></defs></svg><svg fill="none" viewBox="0 0 20 20" id="pencil" xmlns="http://www.w3.org/2000/svg"><g fill-rule="evenodd" clip-rule="evenodd" fill="#CB11AB"><path d="m13.159 3.06 3.781 3.782L6.727 17.055l-3.992.798a.5.5 0 0 1-.588-.588l.798-3.992L13.16 3.06zM4.177 13.932l8.982-8.981 1.89 1.89-8.981 8.982-2.364.473.473-2.364z"/><path d="m15.995 7.787-3.782-3.781 1.418-1.419a2.005 2.005 0 0 1 2.837 0l.945.946a2.006 2.006 0 0 1 0 2.836l-1.418 1.418zm.473-2.363a.668.668 0 0 0 0-.946l-.946-.945a.668.668 0 0 0-.945 0l-.473.473 1.89 1.89.474-.472z"/></g></svg><svg fill="none" viewBox="0 0 22 22" id="price-shipping" xmlns="http://www.w3.org/2000/svg"><g fill-rule="evenodd" clip-rule="evenodd"><path d="M1 11c0 5.523 4.477 10 10 10s10-4.477 10-10S16.523 1 11 1 1 5.477 1 11zm18.182 0a8.182 8.182 0 1 1-16.364 0 8.182 8.182 0 0 1 16.364 0z" fill="url(#qa)"/><path d="M6.983 9.655a1 1 0 0 1 1.41.108l2.236 2.609 4.054-4.791a1 1 0 0 1 1.526 1.292l-4.433 5.239a1.5 1.5 0 0 1-2.284.007l-2.618-3.054a1 1 0 0 1 .109-1.41z" fill="url(#qb)"/></g><defs><linearGradient id="qa" x1="4" y1="2" x2="11" y2="21" gradientUnits="userSpaceOnUse"><stop stop-color="#0CD38B"/><stop offset="1" stop-color="#0CB477"/></linearGradient><linearGradient id="qb" x1="9" y1="7.5" x2="10.509" y2="15.859" gradientUnits="userSpaceOnUse"><stop stop-color="#0CD38B"/><stop offset="1" stop-color="#0CB477"/></linearGradient></defs></svg><svg fill="none" viewBox="0 0 28 29" id="profile" xmlns="http://www.w3.org/2000/svg"><path fill-rule="evenodd" clip-rule="evenodd" d="M18.52 9.289c0 2.77-2.084 4.918-4.514 4.918s-4.515-2.148-4.515-4.895C9.48 6.601 11.588 4.5 14.006 4.5c2.418 0 4.515 2.054 4.515 4.789zM4.5 22.998c0 .986.643 1.502 2.442 1.502h14.116c1.799 0 2.442-.516 2.442-1.502 0-2.864-3.657-6.808-9.494-6.808-5.849 0-9.506 3.944-9.506 6.808z" fill="#fff"/></svg><svg fill="none" viewBox="0 0 28 29" id="profile-mobile" xmlns="http://www.w3.org/2000/svg"><path fill-rule="evenodd" clip-rule="evenodd" d="M2.8 22.706c0 1.068.745 1.627 2.828 1.627h16.345c2.082 0 2.827-.56 2.827-1.627 0-3.102-4.234-7.373-10.993-7.373-6.772 0-11.007 4.271-11.007 7.373zm16-14.439c0 2.853-2.309 5.066-5 5.066s-5-2.213-5-5.042c-.013-2.793 2.322-4.958 5-4.958s5 2.116 5 4.934z" fill="#CCC"/></svg><svg fill="none" viewBox="0 0 28 29" id="profile_(1)" xmlns="http://www.w3.org/2000/svg"><path fill-rule="evenodd" clip-rule="evenodd" d="M2.8 22.706c0 1.068.745 1.627 2.828 1.627h16.345c2.082 0 2.827-.56 2.827-1.627 0-3.102-4.234-7.373-10.993-7.373-6.772 0-11.007 4.271-11.007 7.373zm16-14.439c0 2.853-2.309 5.066-5 5.066s-5-2.213-5-5.042c-.013-2.793 2.322-4.958 5-4.958s5 2.116 5 4.934z" fill="#CCC"/></svg><svg fill="none" viewBox="0 0 12 12" id="rating-icon" xmlns="http://www.w3.org/2000/svg"><path fill-rule="evenodd" clip-rule="evenodd" d="M6.698 1.15a.755.755 0 0 0-1.396 0h1.396zm-1.396 0L4.147 3.91l-2.955.256c-.673.059-.93.894-.432 1.329l2.245 1.964-.673 2.923c-.148.642.546 1.175 1.13.82L6 9.656l2.538 1.545c.585.358 1.278-.178 1.13-.818l-.673-2.924 2.245-1.964c.498-.435.24-1.27-.432-1.328L7.853 3.91 6.698 1.15" fill="#FF970D"/></svg><svg fill="none" viewBox="0 0 24 24" id="search" xmlns="http://www.w3.org/2000/svg"><g fill-rule="evenodd" clip-rule="evenodd" fill="#fff" opacity=".4"><path d="M9.934 3.703a6.313 6.313 0 1 0 0 12.625 6.313 6.313 0 0 0 0-12.625zm-7.996 6.312a7.996 7.996 0 1 1 15.992 0 7.996 7.996 0 0 1-15.992 0z"/><path d="M13.96 14.899a.842.842 0 0 1 1.19-.016l6.046 5.892a.842.842 0 1 1-1.175 1.206l-6.045-5.892a.842.842 0 0 1-.016-1.19z"/></g></svg><svg fill="none" viewBox="0 0 28 28" id="search-btn" xmlns="http://www.w3.org/2000/svg"><path fill-rule="evenodd" clip-rule="evenodd" d="M5.999 12a6 6 0 1 1 12 0 6 6 0 0 1-12 0zm6-8a8 8 0 1 0 4.906 14.32l5.529 5.53a1 1 0 1 0 1.414-1.415l-5.53-5.53A8 8 0 0 0 11.998 4z" fill="#fff"/></svg></svg>